<svg xmlns="http://www.w3.org/2000/svg" xmlns:xlink="http://www.w3.org/1999/xlink" width="1500" height="1500" viewBox="0 0 1500 1500"><defs><style>.a{clip-path:url(#b);}.b{fill:#fff;}.c{fill:rgba(255,255,255,0);}</style><clipPath id="b"><rect width="1500" height="1500"/></clipPath></defs><g id="a" class="a"><rect class="c" width="1500" height="1500"/><g transform="translate(11188 -7574)"><path d="M-6398.986-700.684h324.66s142.8,132.742,103.074,203.023-132.021,76.284-262.906,76.284-219.2-6-260.637-76.284S-6398.986-700.684-6398.986-700.684Z" transform="translate(-4210 9162)"/><path d="M-6409.1-725.684h344.6l7.2,6.689c26.26,24.41,154.875,150.394,107.816,233.637-46.694,82.6-147.44,88.981-284.669,88.981-134.641,0-233.692-6.354-282.173-88.587-50-84.8,84.468-218.7,99.965-233.689Zm324.769,50h-304.328c-41.2,42.153-106.956,127.41-84.6,165.326,32.273,54.743,99.844,63.98,239.1,63.98,120.149,0,207.775-4.561,241.143-63.587C-5973.5-544.479-6033.8-626.428-6084.329-675.684Z" transform="translate(-4210 9162)"/><path d="M-6236.479-421.377s-7.587,39.224-115.695,56.5-194.031-15.341-316.735,12.592-119.042,99.9-119.042,99.9,49.7-29.277,159.311-29.277,160.7,27.761,268.8,15.311,123.358-49.8,123.358-49.8,16.556,37.35,130.662,49.8,163.81-18.8,273.183-15.311,164.311,29.277,164.311,29.277-14.972-71.776-124.346-99.9-192.557-1.769-313.147-12.592S-6236.479-421.377-6236.479-421.377Z" transform="translate(-4210 9162)"/><path d="M-6236.479-421.377s-7.587,39.224-115.695,56.5c-72.429,11.572-134.917.75-205.166.75-34.6,0-71.075,2.623-111.57,11.842-122.7,27.933-119.042,99.9-119.042,99.9s49.7-29.277,159.311-29.277,160.7,27.761,268.8,15.311,123.358-49.8,123.358-49.8,16.556,37.351,130.662,49.8c108,11.784,158.32-15.582,256.129-15.585,5.532,0,11.2.087,17.054.274,109.373,3.492,164.311,29.277,164.311,29.277s-14.972-71.776-124.346-99.9c-88.578-22.776-159.986-9.82-247.991-9.82-20.66,0-42.229-.714-65.156-2.771-120.591-10.822-130.662-56.5-130.662-56.5m-45.11-20.306c-.025.031-2.508,3.2-3.98,10.81l97.917-1.271c-1.415-6.415-3.286-8.93-3.365-9.034.15.2,15.894,19.876,89.669,26.5,19.278,1.73,39.128,2.571,60.687,2.571,22.928,0,45.244-.944,66.825-1.857,21.075-.891,42.867-1.813,64.672-1.813,48.657,0,88.425,4.646,128.946,15.065,110.13,28.317,152.92,100.14,160.841,138.114l20.445,98.013-90.636-42.54c-.078-.029-49.121-21.515-144.662-24.565-5.306-.169-10.443-.249-15.457-.249-37.322,0-66.985,4.367-98.39,8.989-31.875,4.691-64.835,9.542-105.19,9.542a529.509,529.509,0,0,1-57.975-3.241c-59.409-6.482-98.571-19.766-124.363-34.079-24.715,14.321-62.078,27.546-118.514,34.045a520.295,520.295,0,0,1-60.1,3.54c-38.968,0-71.978-4.628-103.9-9.1-33.029-4.631-67.181-9.419-110.526-9.419-91.611,0-134.267,22.562-134.687,22.79l-71.119,41.894-3.441-82.866c-.237-4.652-3.937-114.357,157.879-151.193,39.227-8.93,78.206-13.089,122.668-13.089,24.417,0,47.615,1.22,70.048,2.4,21.48,1.129,41.77,2.2,62.288,2.2,24.154,0,44.79-1.5,64.942-4.719C-6295.992-424.492-6281.725-441.513-6281.588-441.684Z" transform="translate(-4210 9162)"/><path d="M-6238.974-1212S-6478.78-1094.625-6526.4-963.8s4.468,223.3,121.691,275.113h333.742c122.456-51.808,161.147-144.284,120.329-275.113S-6238.974-1212-6238.974-1212Z" transform="translate(-4207 9150)"/><path d="M-6239.145-1239.75l10.883,5.161c10.51,4.984,257.909,123.671,301.487,263.346,44.843,143.728-1.65,249.4-134.453,305.583l-4.67,1.976h-344.091l-4.828-2.134c-137.015-60.556-184.986-169.417-135.077-306.531,50.489-138.706,289.768-257.133,299.929-262.106Zm163.017,526.066c106.356-46.755,138.649-123.994,101.623-242.667-29.191-93.563-191.227-191.142-264.2-227.7-46.041,24.133-226.06,124.013-264.2,228.8-40.167,110.35-5.322,191.6,103.567,241.562Z" transform="translate(-4207 9150)"/><g transform="translate(-4210 9162)"><path class="b" d="M25,242.853H-25V0H25Z" transform="translate(-6236.574 -1083.5)"/><path class="b" d="M25,242.853H-25V0H25Z" transform="translate(-6115.147 -962.074) rotate(90)"/></g><circle cx="111.5" cy="111.5" r="111.5" transform="translate(-10558 7739)"/><path d="M111.5,50A61.5,61.5,0,1,0,173,111.5,61.57,61.57,0,0,0,111.5,50m0-50A111.5,111.5,0,1,1,0,111.5,111.5,111.5,0,0,1,111.5,0Z" transform="translate(-10558 7739)"/><path class="b" d="M467.185,25H0A25,25,0,0,1-25,0,25,25,0,0,1,0-25H467.185a25,25,0,0,1,25,25A25,25,0,0,1,467.185,25Z" transform="translate(-10668.5 8600.5)"/><path class="b" d="M320.967,25H0A25,25,0,0,1-25,0,25,25,0,0,1,0-25H320.967a25,25,0,0,1,25,25A25,25,0,0,1,320.967,25Z" transform="translate(-10606.981 8470.5)"/></g></g></svg>