<svg xmlns="http://www.w3.org/2000/svg" xmlns:xlink="http://www.w3.org/1999/xlink" width="1500" height="1500" viewBox="0 0 1500 1500"><defs><style>.a{clip-path:url(#b);}.b{fill:#fff;}.c{fill:rgba(255,255,255,0);}</style><clipPath id="b"><rect width="1500" height="1500"/></clipPath></defs><g id="a" class="a"><rect class="c" width="1500" height="1500"/><g transform="translate(11392 -309)"><path d="M-5414.624,1319.031c1.148-.574-6.522-72.708,19.521-122.406s84.651-76.385,84.651-76.385V1023.8h-76.922V976.73h76.922V906.563h52.5V976.73h76.182V1023.8h-80.191v96.439s60.265,28.161,90.036,76.385,19.521,122.406,19.521,122.406l-131.9,186.247Z" transform="translate(-5359.816 -436)"/><path d="M-5287.725,2101.05c181.979,0,366.633-64.846,366.633-64.846v-261.7s-184.653-101.129-366.633-101.129-361.285,101.129-361.285,101.129v261.7S-5469.7,2101.05-5287.725,2101.05Z" transform="translate(-5356 -454)"/><g transform="translate(-5 -3)"><path class="b" d="M-5651.979,2019.778a25,25,0,0,1-22.762-14.634,25,25,0,0,1,12.374-33.119c7.086-3.231,175.428-79.133,339.708-79.133,164.132,0,328.569,71.879,335.488,74.939a25,25,0,0,1,12.753,32.964,25,25,0,0,1-32.966,12.768c-1.6-.707-161.922-70.672-315.276-70.672-153.531,0-317.326,73.88-318.962,74.626A24.912,24.912,0,0,1-5651.979,2019.778Z" transform="translate(-5313 -575)"/><path class="b" d="M-5651.979,2019.778a25,25,0,0,1-22.762-14.634,25,25,0,0,1,12.374-33.119c7.086-3.231,175.428-79.133,339.708-79.133,164.132,0,328.569,71.879,335.488,74.939a25,25,0,0,1,12.753,32.964,25,25,0,0,1-32.966,12.768c-1.6-.707-161.922-70.672-315.276-70.672-153.531,0-317.326,73.88-318.962,74.626A24.912,24.912,0,0,1-5651.979,2019.778Z" transform="translate(-5313 -445)"/></g><g transform="translate(50)"><path d="M-5826.08,1811.2s-4.275-91.928,10.8-179.2,129.359-205.306,270.318-276.336,221.25-69.327,306-5.352,118.659,196.549,73.6,311.851-209.319,243.894-209.319,243.894-120.329-47.228-233.185-70.941S-5826.08,1811.2-5826.08,1811.2Z" transform="translate(-4982.646 -528.362)"/><path d="M-5145.924,1811.2s4.274-91.928-10.8-179.2-129.359-205.306-270.317-276.336-221.25-69.327-306-5.352-118.659,196.549-73.6,311.851,209.319,243.894,209.319,243.894,120.33-47.228,233.185-70.941S-5145.924,1811.2-5145.924,1811.2Z" transform="translate(-5429.613 -528.362)"/><path d="M-5335,1669.865s3.087-66.395-7.8-129.429-93.431-148.281-195.236-199.582-159.8-50.071-221.011-3.865-85.7,141.956-53.159,225.233,151.183,176.151,151.183,176.151,86.907-34.11,168.413-51.237S-5335,1669.865-5335,1669.865Z" transform="translate(-5359.367 -445)"/><path class="b" d="M-5665.183,1766.863l-11.248-8.8c-5.064-3.964-124.427-98.11-159.058-186.738-35.772-91.549-9.383-200.867,61.383-254.285,35.868-27.075,70.482-39.686,108.932-39.686,38.664,0,82.638,13.085,138.39,41.179,108.549,54.7,196.287,146.235,208.622,217.653,11.222,64.976,8.269,132.022,8.138,134.845l-1.105,23.777-23.812.061c-.738,0-74.684.38-152.525,16.737-78.551,16.506-163.571,49.709-164.42,50.043Zm.01-439.514c-27.391,0-51.7,9.127-78.809,29.593-53.53,40.407-72.849,124.746-44.936,196.18,24.231,62.012,103.525,132.425,132.548,156.757,28.1-10.4,94.436-33.722,158.621-47.209,55.747-11.714,108.5-15.722,138.14-17.093-.058-24.051-1.342-63.36-7.823-100.886-8.357-48.39-78.664-129.514-181.851-181.511C-5597.794,1338.735-5634.619,1327.35-5665.173,1327.35Z" transform="translate(-5359.367 -445)"/><path d="M-5826.236,1669.865s-3.087-66.395,7.8-129.429,93.43-148.281,195.236-199.582,159.8-50.071,221.009-3.865,85.7,141.956,53.158,225.233-151.179,176.151-151.179,176.151-86.907-34.11-168.417-51.237S-5826.236,1669.865-5826.236,1669.865Z" transform="translate(-4867.32 -445)"/><path class="b" d="M-5496.044,1766.861l-13.3-5.215c-.851-.334-86-33.566-164.427-50.044-77.843-16.357-151.786-16.735-152.524-16.737l-23.8-.061-1.114-23.777c-.131-2.822-3.084-69.869,8.139-134.845,12.333-71.416,100.07-162.953,208.622-217.653,55.752-28.094,99.726-41.179,138.389-41.179,38.449,0,73.063,12.61,108.932,39.686,70.769,53.418,97.157,162.737,61.382,254.285-34.629,88.627-153.99,182.773-159.054,186.738Zm-305.58-121.283c29.642,1.371,82.391,5.379,138.138,17.093,64.178,13.485,130.514,36.806,158.616,47.206,29.033-24.365,108.375-94.872,132.553-156.754,27.915-71.434,8.6-155.773-44.934-196.181-27.113-20.466-51.418-29.593-78.809-29.593-30.554,0-67.378,11.385-115.889,35.83-103.189,52-173.5,133.122-181.851,181.51C-5800.282,1582.218-5801.566,1621.526-5801.624,1645.578Z" transform="translate(-4867.32 -445)"/></g></g></g></svg>