<svg xmlns="http://www.w3.org/2000/svg" xmlns:xlink="http://www.w3.org/1999/xlink" width="1500" height="1500" viewBox="0 0 1500 1500"><defs><style>.a{clip-path:url(#b);}.b{fill:#fff;}.c{fill:rgba(255,255,255,0);}</style><clipPath id="b"><rect width="1500" height="1500"/></clipPath></defs><g id="a" class="a"><rect class="c" width="1500" height="1500"/><g transform="translate(-1788 -3280)"><path d="M-803.143,3495.181c-24.083,8.124,5.3,69.059,0,124.186s-124.766,196.724-189.18,344.7-64.853,164.807-60.211,247.21,78.781,82.4,171.63,0c0,0-34.818,108.227,0,102.134s52.518-55.709,139.273-126.506,134.051-87.988,207.749-172.131,83.564-162.125,87.046-164.446-6.964,223.417-71.958,360.95S-651.1,4336.67-706.812,4428.648s-34.818,150.543-34.818,150.543H30.176s9.575-568.7-127.667-760.2-409-232.122-409-232.122,8.587-116.061-27.392-119.543-128.828,119.543-128.828,119.543h-44.1S-779.06,3487.056-803.143,3495.181Z" transform="translate(3050)"/><path d="M-535.42,3467.254c-37.01,0-127.289,119.615-127.289,119.615h-44.1s-66.707-92.155-93.292-92.158a9.44,9.44,0,0,0-3.039.47c-24.083,8.125,5.3,69.059,0,124.186s-124.766,196.724-189.18,344.7-64.853,164.807-60.211,247.21,78.781,82.4,171.63,0c0,0-34.818,108.225,0,102.134s52.518-55.709,139.273-126.506,134.051-87.988,207.749-172.131,83.564-162.125,87.046-164.447a.1.1,0,0,1,.052-.018c3.323-.019-7.345,224.132-72.01,360.968-64.994,137.532-132.31,125.392-188.019,217.371s-34.818,150.543-34.818,150.543H30.176s9.575-568.7-127.667-760.2-409-232.123-409-232.123,8.587-116.061-27.392-119.542c-.5-.048-1.017-.072-1.539-.072m0-50c2.156,0,4.285.1,6.351.3,56.544,5.472,72.644,66.01,73.8,128.721,87.351,20.74,283.51,83.25,398.417,243.586,145.2,202.609,137.422,766.272,137.019,790.168l-.828,49.158H-776.881l-11.843-33.2c-2.955-8.285-26.965-84.095,39.145-193.245,28.572-47.173,60.526-72.164,88.718-94.212,34.732-27.164,64.728-50.623,96.862-118.619,15.118-31.991,27.148-69.989,36.614-108.752-37.763,38.011-70.229,61.219-106.627,87.238-23.232,16.607-47.254,33.78-76.006,57.243-37.986,31-61.388,57.3-80.191,78.442-25,28.1-46.584,52.366-82.076,58.577a65.893,65.893,0,0,1-11.324,1,59.868,59.868,0,0,1-48.885-24.832c-3.044-4.177-8.718-11.96-11.752-27.334-19.5,7.669-38.13,11.586-55.55,11.586-44.524,0-98.126-28.544-102.658-108.99-5.256-93.3-1.321-119.258,64.287-269.979,33.707-77.435,81.67-153.005,120.209-213.728,27.935-44.014,62.7-98.79,65.06-115.938,1.637-17.043-1.868-38.035-4.96-56.555-5.359-32.1-15.335-91.847,38.733-110.087a59.388,59.388,0,0,1,19.022-3.094c14.393,0,46.6.01,115.635,88.623C-591.9,3417.245-549.825,3417.253-535.42,3417.253Z" transform="translate(3050)"/><circle class="b" cx="41" cy="41" r="41" transform="translate(2048 4080)"/><path class="b" d="M56.945-28.686c20.75,0,27.213,15.517,27.213,38.437s-42.3,94-63.344,101.935S-9.033,76.593,0,41.5,36.2-28.686,56.945-28.686Z" transform="translate(2239 3734)"/><path class="b" d="M1389.934-2151.529q-.486,0-.976-.019a25,25,0,0,1-24.023-25.939c.148-3.86,13.76-388.619-74.481-618.322-86.092-224.107-274.466-295.15-276.359-295.841a25,25,0,0,1-14.9-32.06,25,25,0,0,1,32.06-14.9c8.6,3.142,211.716,79.764,305.877,324.875,91.95,239.357,78.392,622,77.77,638.172A25,25,0,0,1,1389.934-2151.529Z" transform="translate(1676 6770)"/></g></g></svg>