<svg xmlns="http://www.w3.org/2000/svg" xmlns:xlink="http://www.w3.org/1999/xlink" width="1500" height="1500" viewBox="0 0 1500 1500"><defs><style>.a{clip-path:url(#b);}.b{fill:#fff;}.c{fill:rgba(255,255,255,0);}</style><clipPath id="b"><rect width="1500" height="1500"/></clipPath></defs><g id="a" class="a"><rect class="c" width="1500" height="1500"/><g transform="translate(11377 3514)"><circle cx="98" cy="98" r="98" transform="translate(-11294 -3205)"/><path d="M98,50a48,48,0,1,0,48,48A48.054,48.054,0,0,0,98,50M98,0A98,98,0,1,1,0,98,98,98,0,0,1,98,0Z" transform="translate(-11294 -3205)"/><circle cx="98" cy="98" r="98" transform="translate(-11020 -3320)"/><path d="M98,50a48,48,0,1,0,48,48A48.054,48.054,0,0,0,98,50M98,0A98,98,0,1,1,0,98,98,98,0,0,1,98,0Z" transform="translate(-11020 -3320)"/><circle cx="98" cy="98" r="98" transform="translate(-10725 -3364)"/><path d="M98,50a48,48,0,1,0,48,48A48.054,48.054,0,0,0,98,50M98,0A98,98,0,1,1,0,98,98,98,0,0,1,98,0Z" transform="translate(-10725 -3364)"/><circle cx="98" cy="98" r="98" transform="translate(-10430 -3320)"/><path d="M98,50a48,48,0,1,0,48,48A48.054,48.054,0,0,0,98,50M98,0A98,98,0,1,1,0,98,98,98,0,0,1,98,0Z" transform="translate(-10430 -3320)"/><circle cx="98" cy="98" r="98" transform="translate(-10156 -3205)"/><path d="M98,50a48,48,0,1,0,48,48A48.054,48.054,0,0,0,98,50M98,0A98,98,0,1,1,0,98,98,98,0,0,1,98,0Z" transform="translate(-10156 -3205)"/><g transform="translate(-4406 22)"><path d="M-6759.224-3056.27l73.632,398.041,162.2-17.074Z"/><path d="M-6737.967-3069.429l256.793,414.82-224.795,23.662-77.838-420.776ZM-6565.6-2696l-144.833-233.961,45.219,244.447Z"/><path d="M-6502.044-3152.312l-10.671,474.875h189.95Z"/><path d="M-6478.655-3161.142l192.05,508.7h-251.678l11.246-500.436Zm119.729,458.7-121.018-320.553-7.2,320.553Z"/><path d="M-6221-3193.93l-109.236,513.291h218.762Z"/><path d="M-6196.55-3199.147l115.974,543.508h-280.54l115.664-543.495Zm54.179,493.508-78.6-368.34-78.388,368.34Z"/><path d="M-6523.387-3056.27l-73.632,398.041-162.2-17.074Z" transform="translate(848.081)"/><path d="M-6544.644-3069.429l45.84,17.707-77.838,420.776-224.795-23.662Zm-72.752,383.917,45.219-244.447L-6717.01-2696Z" transform="translate(848.081)"/><path d="M-6333.437-3152.312l10.671,474.875h-189.95Z" transform="translate(400.949)"/><path d="M-6356.825-3161.142l48.382,8.268,11.246,500.436h-251.678Zm8.492,458.7-7.2-320.553-121.018,320.553Z" transform="translate(400.949)"/></g><path d="M-6680.718-2653.264s218.843-57.25,452.112-57.25,483.684,53.672,483.684,53.672l-110.715,165.08V-2381.5l67.03,156.889s-225.194,38.858-441.037,38.858-422.336-38.858-422.336-38.858l71.888-156.889V-2491.76Z" transform="translate(-4406 22)"/><path d="M-6228.606-2735.513c233.22,0,486.393,53.685,488.923,54.228a25,25,0,0,1,17.936,15.069,25,25,0,0,1-2.413,23.3l-106.478,158.762v97.535l65.02,152.183a25,25,0,0,1-1.027,21.766,25,25,0,0,1-17.711,12.693c-2.273.392-229.8,39.222-445.288,39.222-215.68,0-424.872-38.9-426.96-39.289a25,25,0,0,1-17.58-13.078,25,25,0,0,1-.525-21.9l69.616-151.929v-97.653l-96.843-155.434a25,25,0,0,1-2.008-22.467,25,25,0,0,1,16.9-14.939C-6677.982-2679.821-6462.4-2735.513-6228.606-2735.513Zm441.993,95.952c-77.481-14.5-265.828-45.952-441.993-45.952-174.87,0-343.1,33.032-412.5,48.555l82.229,131.977a25,25,0,0,1,3.781,13.22V-2381.5a25,25,0,0,1-2.272,10.414l-58.331,127.3c65.663,10.583,224.063,33.031,386.052,33.031,164.582,0,336.469-23.129,405.445-33.532l-54.428-127.393a25,25,0,0,1-2.01-9.822V-2491.76a25,25,0,0,1,4.237-13.925Z" transform="translate(-4406 22)"/><path class="b" d="M-6580.566-2476.946a25.008,25.008,0,0,1-24.562-20.5,25,25,0,0,1,20.085-29.1c7.512-1.376,186.043-33.7,366.584-33.7,180.575,0,356.477,32.339,363.876,33.716a25,25,0,0,1,20,29.149,25,25,0,0,1-29.148,20.008c-1.769-.329-178.913-32.873-354.733-32.873-176.038,0-355.779,32.556-357.574,32.885A25.143,25.143,0,0,1-6580.566-2476.946Z" transform="translate(-4406 -8)"/><path class="b" d="M-6218.458-2476.955c-180.541,0-359.072-32.323-366.583-33.7a25,25,0,0,1-20.086-29.093,25,25,0,0,1,29.093-20.089c1.8.329,181.714,32.881,357.577,32.881,175.821,0,352.965-32.54,354.734-32.869a25,25,0,0,1,29.147,20.009,25,25,0,0,1-20.005,29.148C-5861.982-2509.29-6037.883-2476.955-6218.458-2476.955Z" transform="translate(-4406 225.294)"/><path class="b" d="M-6176-2486.819c-202.986,0-402.029-47.462-410.4-49.483a25,25,0,0,1-18.438-30.163,25,25,0,0,1,30.162-18.443c2,.481,201.813,48.089,398.679,48.089s396.993-47.61,398.992-48.091a25,25,0,0,1,30.156,18.454A25,25,0,0,1-5765.3-2536.3C-5773.686-2534.279-5973.019-2486.819-6176-2486.819Z" transform="translate(-4451 324.375)"/><path class="b" d="M-6580.556-2486.809a25.011,25.011,0,0,1-24.284-19.144,25,25,0,0,1,18.438-30.163c8.374-2.021,207.417-49.488,410.4-49.488s402.313,47.465,410.7,49.486a25,25,0,0,1,18.448,30.157,25,25,0,0,1-30.156,18.453c-2-.481-202.122-48.1-398.991-48.1s-396.683,47.612-398.678,48.093A25.076,25.076,0,0,1-6580.556-2486.809Z" transform="translate(-4451 -65.53)"/></g></g></svg>