<svg xmlns="http://www.w3.org/2000/svg" xmlns:xlink="http://www.w3.org/1999/xlink" width="1500" height="1500" viewBox="0 0 1500 1500"><defs><style>.a{clip-path:url(#b);}.b{fill:#fff;}.c{fill:rgba(255,255,255,0);}</style><clipPath id="b"><rect width="1500" height="1500"/></clipPath></defs><g id="a" class="a"><rect class="c" width="1500" height="1500"/><g transform="translate(1824 -748)"><path d="M-656.326,963.307v207.749l-90.528,95.17v412.017l54.549,84.724v120.7h102.134v149.719h-965.048V1883.672h94.706v-120.7l66.851-84.724V1266.227l-104.919-95.17V963.307h196.84v64.066h119.775V963.307h220.98v64.066h126.274V963.307Z"/><g transform="translate(-43.254)"><path class="b" d="M849.9,25H0V-25H849.9Z" transform="translate(-1456.508 1158.5)"/><path class="b" d="M767.654,25H0V-25H767.654Z" transform="translate(-1412.642 1773.5)"/><path class="b" d="M986.984,25H0V-25H986.984Z" transform="translate(-1524.5 1909.5)"/><path class="b" d="M657.989,12.5H0v-25H657.989Z" transform="translate(-1357.809 1248.5)"/><path class="b" d="M657.989,12.5H0v-25H657.989Z" transform="translate(-1357.809 1678.5)"/></g></g></g></svg>