<svg xmlns="http://www.w3.org/2000/svg" xmlns:xlink="http://www.w3.org/1999/xlink" width="1500" height="1500" viewBox="0 0 1500 1500"><defs><style>.a{clip-path:url(#b);}.b{fill:#fff;}.c{fill:rgba(255,255,255,0);}</style><clipPath id="b"><rect width="1500" height="1500"/></clipPath></defs><g id="a" class="a"><rect class="c" width="1500" height="1500"/><g transform="translate(12683 -296)"><path class="b" d="M-5287.725,2101.05c181.979,0,366.633-64.846,366.633-64.846v-261.7s-184.653-101.129-366.633-101.129-361.285,101.129-361.285,101.129v261.7S-5469.7,2101.05-5287.725,2101.05Z" transform="translate(-6647.786 -480.487)"/><path d="M-5287.725,2126.05c-184.243,0-362.3-63.627-369.787-66.336l-16.5-5.966V1759.9l12.719-7.173c7.555-4.261,187.166-104.353,373.566-104.353,186.236,0,370.873,99.947,378.642,104.2l12.991,7.115v294.229l-16.716,5.871C-4920.513,2062.5-5103.6,2126.05-5287.725,2126.05Zm-336.285-107.819c47.829,15.442,192.234,57.819,336.285,57.819,144.642,0,292.786-42.566,341.633-57.963V1789.757c-44.4-22.1-195.306-91.38-341.633-91.38-146.051,0-292.98,69.068-336.285,91.189Z" transform="translate(-6647.786 -480.487)"/><path d="M-5642.3,2017.816l-19.4-46.085c7.646-3.219,189.281-78.839,366.374-78.839,176.953,0,354.371,71.61,361.836,74.658l-18.893,46.293c-1.741-.71-176.018-70.952-342.943-70.952C-5462.117,1942.892-5640.518,2017.067-5642.3,2017.816Z" transform="translate(-6634.799 -601.808)"/><path d="M-5642.3,2017.816l-19.4-46.085c7.646-3.219,189.281-78.839,366.374-78.839,176.953,0,354.371,71.61,361.836,74.658l-18.893,46.293c-1.741-.71-176.018-70.952-342.943-70.952C-5462.117,1942.892-5640.518,2017.067-5642.3,2017.816Z" transform="translate(-6634.799 -471.487)"/><path class="b" d="M-5414.624,1319.031c1.148-.574-6.522-72.708,19.521-122.406s84.651-76.385,84.651-76.385V1023.8h-76.922V976.73h76.922V906.563h52.5V976.73h76.182V1023.8h-80.191v96.439s60.265,28.161,90.036,76.385,19.521,122.406,19.521,122.406l-131.9,186.247Z" transform="translate(-6651.816 -436)"/><path d="M-5284.057,1418.418-5201,1301.146c1.062-20.59-.144-56.679-13.464-78.255-17.681-28.64-55.674-51.166-68.658-57.352l-3.081-1.44-3.3,1.543c-12.126,5.672-46.778,26.464-61.309,54.192-9.589,18.3-14.276,46.274-13.957,83.231l80.715,115.354m-.247,86.861-130.32-186.247c1.148-.574-6.522-72.708,19.521-122.406s84.651-76.385,84.651-76.385V1023.8h-76.922V976.73h76.922V906.564h52.5V976.73h76.182V1023.8h-80.191v96.439s60.265,28.161,90.036,76.385,19.521,122.406,19.521,122.406Z" transform="translate(-6651.816 -436)"/><path class="b" d="M-5298.745,1729.473s3.313-77.164-8.375-150.421-100.319-172.331-209.633-231.953-171.581-58.192-237.308-4.492-92.018,164.98-57.079,261.763,162.331,204.722,162.331,204.722,93.315-39.642,180.832-59.547S-5298.745,1729.473-5298.745,1729.473Z" transform="translate(-6636.368 -529.007)"/><path d="M-5653.215,1838.122l-11.755-9.956c-5.41-4.583-132.9-113.422-169.684-215.307-38.234-105.908-10.992-227.708,64.776-289.612,38.326-31.313,75.379-45.9,116.61-45.9,41.51,0,88.692,15.189,148.485,47.8,115.807,63.163,209.318,168.287,222.35,249.961,11.949,74.888,8.8,152.179,8.665,155.433l-1.025,23.86-23.892.067c-.792,0-80.175.442-163.749,19.45-84.227,19.156-175.69,57.793-176.6,58.181Zm-.053-510.773c-29.465,0-55.673,10.676-84.976,34.617-58.916,48.136-80.146,148.7-49.381,233.914,26.4,73.137,112.7,156.005,143.739,184.174,30.1-12.062,101.391-39.2,170.364-54.888,61.038-13.883,118.737-18.453,150.193-19.957.058-27.7-1.117-76.078-8.479-122.22-10.441-65.438-96.937-159.413-196.916-213.944C-5580.881,1340.6-5620.456,1327.35-5653.268,1327.35Z" transform="translate(-6636.368 -529.007)"/><path class="b" d="M-5826.207,1729.473s-3.315-77.164,8.376-150.421,100.32-172.331,209.634-231.953,171.581-58.192,237.308-4.492,92.021,164.98,57.078,261.763-162.328,204.722-162.328,204.722-93.317-39.642-180.838-59.547S-5826.207,1729.473-5826.207,1729.473Z" transform="translate(-6105.242 -529.007)"/><path d="M-5471.728,1838.123l-14.182-6.02c-.914-.388-92.379-39.024-176.61-58.181-83.836-19.068-162.949-19.448-163.738-19.45l-23.9-.049-1.026-23.878c-.14-3.254-3.286-80.546,8.666-155.434,13.029-81.672,106.542-186.8,222.351-249.96,59.794-32.612,106.977-47.8,148.486-47.8,41.23,0,78.284,14.584,116.61,45.9,75.771,61.905,103.013,183.705,64.775,289.613-36.779,101.884-164.271,210.722-169.68,215.306Zm-329.9-132.913c31.454,1.5,89.155,6.073,150.2,19.957,68.981,15.688,140.271,42.827,170.37,54.888,31.042-28.169,117.334-111.037,143.736-184.174,30.767-85.217,9.538-185.778-49.381-233.915-29.3-23.941-55.511-34.618-84.976-34.618-32.812,0-72.386,13.25-124.544,41.7-99.981,54.531-186.478,148.506-196.917,213.943C-5800.523,1629.233-5801.694,1677.551-5801.63,1705.21Z" transform="translate(-6105.242 -529.007)"/></g></g></svg>