<svg xmlns="http://www.w3.org/2000/svg" xmlns:xlink="http://www.w3.org/1999/xlink" width="1500" height="1500" viewBox="0 0 1500 1500"><defs><style>.a{clip-path:url(#b);}.b{fill:#fff;}.c{fill:rgba(255,255,255,0);}</style><clipPath id="b"><rect width="1500" height="1500"/></clipPath></defs><g id="a" class="a"><rect class="c" width="1500" height="1500"/><path class="b" d="M899.6-1330.718c-70.7,0-104.5,26.834-135.526,81.143s0,160.029,0,160.029-97.6,81.977-100.456,179.161,65.24,180.464,65.24,180.464S618.405-663.225,560.246-538.9s-64.028,306.268-64.028,306.268h821.694s-5.336-181.947-64.028-306.268-170.742-191.017-170.742-191.017,66.39-75.657,60.673-180.464-96.956-179.161-96.956-179.161,36.816-99.736,0-160.029S970.293-1330.718,899.6-1330.718Z" transform="translate(-157 1532)"/><path d="M899.6-1355.718c80.414,0,127.685,26.107,168.6,93.115,33.266,54.479,16.928,131.81,7.346,165.319,27.272,26.325,88.293,94.913,93.236,185.539,4.35,79.753-28.834,143.537-50.06,175.68,37.505,27.225,112.3,90.179,157.773,186.49,60.229,127.576,66.186,308.566,66.41,316.208l.755,25.733H470.4l.833-25.806c.246-7.639,6.721-188.547,66.37-316.055C582.749-646,656.792-709.034,693.706-736.166c-21.594-33.086-57.3-99.593-55.082-174.953,2.545-86.545,69.5-159.8,97.438-186.692-8.154-34.129-22.474-113.8,6.3-164.166C774.509-1318.244,813.55-1355.718,899.6-1355.718ZM1291.455-257.636c-3.861-53.554-17.174-179.505-60.178-270.595-54.535-115.516-159.894-179.592-160.952-180.226l-25.714-15.4,19.74-22.549c.55-.635,59.563-69.809,54.5-162.612-5.056-92.7-86.96-160.47-87.786-161.143l-13.845-11.282,6.185-16.755c9.018-24.638,27-97.589,2.117-138.344-31.974-52.364-62.574-69.172-125.928-69.172-56.516,0-84.173,16.656-113.819,68.545-21.034,36.816-5.481,113.98,2.287,140.607l4.567,15.656L780.148-1070.4c-.865.73-89.058,76.174-91.546,160.753-2.539,86.325,59.01,163.171,59.632,163.937l18.11,22.306L741.777-708.52c-1.012.615-104.84,64.679-158.886,180.21-42.625,91.115-56.161,217.067-60.148,270.674Z" transform="translate(-157 1532)"/></g></svg>