<svg xmlns="http://www.w3.org/2000/svg" xmlns:xlink="http://www.w3.org/1999/xlink" width="1500" height="1500" viewBox="0 0 1500 1500"><defs><style>.a{clip-path:url(#b);}.b{fill:#fff;}.c{fill:rgba(255,255,255,0);}</style><clipPath id="b"><rect width="1500" height="1500"/></clipPath></defs><g id="a" class="a"><rect class="c" width="1500" height="1500"/><g transform="translate(6971 3536)"><circle class="b" cx="98" cy="98" r="98" transform="translate(-6888 -3227)"/><path d="M98,50a48,48,0,1,0,48,48A48.054,48.054,0,0,0,98,50M98,0A98,98,0,1,1,0,98,98,98,0,0,1,98,0Z" transform="translate(-6888 -3227)"/><circle class="b" cx="98" cy="98" r="98" transform="translate(-6614 -3342)"/><path d="M98,50a48,48,0,1,0,48,48A48.054,48.054,0,0,0,98,50M98,0A98,98,0,1,1,0,98,98,98,0,0,1,98,0Z" transform="translate(-6614 -3342)"/><circle class="b" cx="98" cy="98" r="98" transform="translate(-6319 -3386)"/><path d="M98,50a48,48,0,1,0,48,48A48.054,48.054,0,0,0,98,50M98,0A98,98,0,1,1,0,98,98,98,0,0,1,98,0Z" transform="translate(-6319 -3386)"/><circle class="b" cx="98" cy="98" r="98" transform="translate(-6024 -3342)"/><path d="M98,50a48,48,0,1,0,48,48A48.054,48.054,0,0,0,98,50M98,0A98,98,0,1,1,0,98,98,98,0,0,1,98,0Z" transform="translate(-6024 -3342)"/><circle class="b" cx="98" cy="98" r="98" transform="translate(-5750 -3227)"/><path d="M98,50a48,48,0,1,0,48,48A48.054,48.054,0,0,0,98,50M98,0A98,98,0,1,1,0,98,98,98,0,0,1,98,0Z" transform="translate(-5750 -3227)"/><path class="b" d="M-6759.224-3056.27l73.632,398.041,162.2-17.074Z"/><path d="M-6737.967-3069.429l256.793,414.82-224.795,23.662-77.838-420.776ZM-6565.6-2696l-144.833-233.961,45.219,244.447Z"/><path class="b" d="M-6502.044-3152.312l-10.671,474.875h189.95Z"/><path d="M-6478.655-3161.142l192.05,508.7h-251.678l11.246-500.436Zm119.729,458.7-121.018-320.553-7.2,320.553Z"/><path class="b" d="M-6221-3193.93l-109.236,513.291h218.762Z"/><path d="M-6196.55-3199.147l115.974,543.508h-280.54l115.664-543.495Zm54.179,493.508-78.6-368.34-78.388,368.34Z"/><path class="b" d="M-6523.387-3056.27l-73.632,398.041-162.2-17.074Z" transform="translate(848.081)"/><path d="M-6544.644-3069.429l45.84,17.707-77.838,420.776-224.795-23.662Zm-72.752,383.917,45.219-244.447L-6717.01-2696Z" transform="translate(848.081)"/><path class="b" d="M-6333.437-3152.312l10.671,474.875h-189.95Z" transform="translate(400.949)"/><path d="M-6356.825-3161.142l48.382,8.268,11.246,500.436h-251.678Zm8.492,458.7-7.2-320.553-121.018,320.553Z" transform="translate(400.949)"/><path class="b" d="M-6680.718-2653.264s218.843-57.25,452.112-57.25,483.684,53.672,483.684,53.672l-110.715,165.08V-2381.5l67.03,156.889s-225.194,38.858-441.037,38.858-422.336-38.858-422.336-38.858l71.888-156.889V-2491.76Z"/><path d="M-6228.606-2735.513c233.22,0,486.393,53.685,488.923,54.228a25,25,0,0,1,17.936,15.069,25,25,0,0,1-2.413,23.3l-106.478,158.762v97.535l65.02,152.183a25,25,0,0,1-1.027,21.766,25,25,0,0,1-17.711,12.693c-2.273.392-229.8,39.222-445.288,39.222-215.68,0-424.872-38.9-426.96-39.289a25,25,0,0,1-17.58-13.078,25,25,0,0,1-.525-21.9l69.616-151.929v-97.653l-96.843-155.434a25,25,0,0,1-2.008-22.467,25,25,0,0,1,16.9-14.939C-6677.982-2679.821-6462.4-2735.513-6228.606-2735.513Zm441.993,95.952c-77.481-14.5-265.828-45.952-441.993-45.952-174.87,0-343.1,33.032-412.5,48.555l82.229,131.977a25,25,0,0,1,3.781,13.22V-2381.5a25,25,0,0,1-2.272,10.414l-58.331,127.3c65.663,10.583,224.063,33.031,386.052,33.031,164.582,0,336.469-23.129,405.445-33.532l-54.428-127.393a25,25,0,0,1-2.01-9.822V-2491.76a25,25,0,0,1,4.237-13.925Z"/><path d="M-6576.032-2477.359l-9.011-49.182c7.512-1.376,186.043-33.7,366.584-33.7,180.575,0,356.477,32.339,363.876,33.716l-9.143,49.157c-1.769-.329-178.913-32.873-354.733-32.873C-6394.5-2510.244-6574.237-2477.688-6576.032-2477.359Z"/><path d="M-6576.032-2477.359l-9.011-49.182c7.512-1.376,186.043-33.7,366.584-33.7,180.575,0,356.477,32.339,363.876,33.716l-9.143,49.157c-1.769-.329-178.913-32.873-354.733-32.873C-6394.5-2510.244-6574.237-2477.688-6576.032-2477.359Z" transform="translate(0 110)"/></g></g></svg>