<svg xmlns="http://www.w3.org/2000/svg" xmlns:xlink="http://www.w3.org/1999/xlink" width="1500" height="1500" viewBox="0 0 1500 1500"><defs><style>.a{clip-path:url(#b);}.b{fill:#fff;}.c{fill:rgba(255,255,255,0);}</style><clipPath id="b"><rect width="1500" height="1500"/></clipPath></defs><g id="a" class="a"><rect class="c" width="1500" height="1500"/><g transform="translate(1823 -748)"><path class="b" d="M-656.326,963.307v207.749l-90.528,95.17v412.017l54.549,84.724v120.7h102.134v149.719h-965.048V1883.672h94.706v-120.7l66.851-84.724V1266.227l-104.919-95.17V963.307h196.84v64.066h119.775V963.307h220.98v64.066h126.274V963.307Z"/><path d="M-1448.581,1013.307v135.6l104.919,95.17v451.519l-66.851,84.724v153.353h-94.706v49.719h865.048v-49.719H-742.3v-156l-54.549-84.725v-446.7l90.528-95.17V1013.307h-78.386v64.066h-226.275v-64.066h-120.98v64.066h-219.775v-64.066h-96.839m-50-50h196.839v64.066h119.775V963.307h220.98v64.066h126.275V963.307h178.386v207.75l-90.528,95.17v412.017l54.549,84.724v120.7h102.134v149.719h-965.048V1883.672h94.706v-120.7l66.851-84.724V1266.227l-104.919-95.17Z"/><path d="M775,25H0V-25H775Z" transform="translate(-1462.5 1158.5)"/><path d="M700,25H0V-25H700Z" transform="translate(-1422.5 1773.5)"/><path d="M900,25H0V-25H900Z" transform="translate(-1524.5 1909.5)"/><path d="M600,12.5H0v-25H600Z" transform="translate(-1372.5 1248.5)"/><path d="M600,12.5H0v-25H600Z" transform="translate(-1372.5 1678.5)"/></g></g></svg>